<?xml version="1.0" encoding="UTF-8"?>
<svg width="512" height="512" viewBox="0 0 512 512" fill="none" xmlns="http://www.w3.org/2000/svg">
  <path d="M256 64C150.13 64 64 150.13 64 256s86.13 192 192 192 192-86.13 192-192S361.87 64 256 64zm91.31 283.31l-32 32a16 16 0 01-22.62 0l-42.69-42.7a4 4 0 00-5.66 0l-42.69 42.7a16 16 0 01-22.62 0l-32-32a16 16 0 010-22.62l42.69-42.69a4 4 0 000-5.66l-42.69-42.69a16 16 0 010-22.62l32-32a16 16 0 0122.62 0l42.69 42.69a4 4 0 005.66 0l42.69-42.69a16 16 0 0122.62 0l32 32a16 16 0 010 22.62l-42.69 42.69a4 4 0 000 5.66l42.69 42.69a16 16 0 010 22.62z" fill="#2196F3"/>
  <path d="M347.31 347.31l-32 32a16 16 0 01-22.62 0l-42.69-42.7a4 4 0 00-5.66 0l-42.69 42.7a16 16 0 01-22.62 0l-32-32a16 16 0 010-22.62l42.69-42.69a4 4 0 000-5.66l-42.69-42.69a16 16 0 010-22.62l32-32a16 16 0 0122.62 0l42.69 42.69a4 4 0 005.66 0l42.69-42.69a16 16 0 0122.62 0l32 32a16 16 0 010 22.62l-42.69 42.69a4 4 0 000 5.66l42.69 42.69a16 16 0 010 22.62z" fill="#1976D2"/>
</svg> 